<svg xmlns="http://www.w3.org/2000/svg" viewBox="104 104 816 816">
  <path d="M512 174L808 342L700 404L512 298Z" fill="#F1ECE2" />
  <path d="M808 342V682L700 742V404Z" fill="#821D28" />
  <path d="M808 682L512 850V726L700 620Z" fill="#4A525C" />
  <path d="M512 850L216 682L324 620L512 726Z" fill="#A32631" />
  <path d="M216 682V342L324 404V620Z" fill="#E14852" />
  <path d="M216 342L512 174V298L324 404Z" fill="#DAB969" />

  <path d="M512 298L700 404V620L512 726L324 620V404Z" fill="#080A0D" />
  <path d="M512 338L662 423V601L512 686L362 601V423Z" fill="none" stroke="#313842" stroke-width="14" />
</svg>
